# xmcd
#
# Track frame offsets:
#	150
#	13586
#	26832
#	39605
#	52661
#	67302
#	78755
#	93435
#	107988
#	120543
#	133900
#	144362
#	157878
#	172472
#	183384
#	195818
#	208411
#	221235
#	234172
#	247807
#	258438
#	270317
#	283163
#	296682
#	310353
#	322096
#	336319
#	348622
#
# Disc length: 4798 seconds
#
# Revision: 2
# Processed by: cddbd v1.5.2PL0 Copyright (c) Steve Scherf et al.
# Submitted via: EZCDAudioConverter 3.1.0.1
#
DISCID=b012bc1c
DTITLE=Chicago Is Just That Way [1949-1953]cdA
DYEAR=195
DGENRE=Blues
TTITLE0=Tampa Red - It's a Brand New Boogie
TTITLE1=Tampa Red - When Things Go Wrong With You
TTITLE2=Tampa Red - Put Your Money Where Your Mouth Is
TTITLE3=Tampa Red - That's Her Own Business
TTITLE4=Tampa Red - 1950 Blues
TTITLE5=Tampa Red - It's Good Like That
TTITLE6=Tampa Red - Love Her With a Feelin'
TTITLE7=Tampa Red - New Deal Blues
TTITLE8=Tampa Red - Don't Blame Shorty for That
TTITLE9=Tampa Red - Sweet Little Angel
TTITLE10=Tampa Red - She's Dynamite
TTITLE11=Tampa Red - Pretty Baby Blues
TTITLE12=Tampa Red - Early in the Morning
TTITLE13=Tampa Red - Boogie Woogie Woman
TTITLE14=Tampa Red - I Won't Let Her Do It
TTITLE15=Tampa Red - Green and Lucky Blues
TTITLE16=Tampa Red - I'm Gonna Put You Down
TTITLE17=Tampa Red - But I Forgive You
TTITLE18=Tampa Red - Too Late Too Long
TTITLE19=Tampa Red - I'll Never Let You Go
TTITLE20=Tampa Red - Got a Mind to Leave This Town
TTITLE21=Jimmy Eager and His Trio [Tampa Red] - Please Mr. Doctor
TTITLE22=Jimmy Eager and His Trio [Tampa Red] - I Should Have Loved Her More
TTITLE23=Tampa Red [Sonny Boy Williamson,harmonica] - So Crazy About You Baby
TTITLE24=Tampa Red [Sonny Boy Williamson,harmonica] - If She Don't Come Back
TTITLE25=Tampa Red [Walter Horton,harmonica] - Big Stars Falling Blues
TTITLE26=Tampa Red [Walter Horton,harmonica] - Rambler's Blues
TTITLE27=Tampa Red [Walter Horton,harmonica] - Evalena
EXTD=
EXTT0=
EXTT1=
EXTT2=
EXTT3=
EXTT4=
EXTT5=
EXTT6=
EXTT7=
EXTT8=
EXTT9=
EXTT10=
EXTT11=
EXTT12=
EXTT13=
EXTT14=
EXTT15=
EXTT16=
EXTT17=
EXTT18=
EXTT19=
EXTT20=
EXTT21=
EXTT22=
EXTT23=
EXTT24=
EXTT25=
EXTT26=
EXTT27=
PLAYORDER=
